<svg aria-roledescription="er" role="graphics-document document" viewBox="0 0 260.2144470214844 174" style="max-width: 100%;" xmlns="http://www.w3.org/2000/svg" width="100%" id="graph-div" height="100%" xmlns:xlink="http://www.w3.org/1999/xlink"><style>@import url("https://cdnjs.cloudflare.com/ajax/libs/font-awesome/6.5.1/css/all.min.css");'</style><style>#graph-div{font-family:"trebuchet ms",verdana,arial,sans-serif;font-size:16px;fill:#333;}#graph-div .error-icon{fill:#552222;}#graph-div .error-text{fill:#552222;stroke:#552222;}#graph-div .edge-thickness-normal{stroke-width:2px;}#graph-div .edge-thickness-thick{stroke-width:3.5px;}#graph-div .edge-pattern-solid{stroke-dasharray:0;}#graph-div .edge-pattern-dashed{stroke-dasharray:3;}#graph-div .edge-pattern-dotted{stroke-dasharray:2;}#graph-div .marker{fill:#333333;stroke:#333333;}#graph-div .marker.cross{stroke:#333333;}#graph-div svg{font-family:"trebuchet ms",verdana,arial,sans-serif;font-size:16px;}#graph-div .entityBox{fill:#ECECFF;stroke:#9370DB;}#graph-div .attributeBoxOdd{fill:#ffffff;stroke:#9370DB;}#graph-div .attributeBoxEven{fill:#f2f2f2;stroke:#9370DB;}#graph-div .relationshipLabelBox{fill:hsl(80, 100%, 96.2745098039%);opacity:0.7;background-color:hsl(80, 100%, 96.2745098039%);}#graph-div .relationshipLabelBox rect{opacity:0.5;}#graph-div .relationshipLine{stroke:#333333;}#graph-div .entityTitleText{text-anchor:middle;font-size:18px;fill:#333;}#graph-div #MD_PARENT_START{fill:#f5f5f5!important;stroke:#333333!important;stroke-width:1;}#graph-div #MD_PARENT_END{fill:#f5f5f5!important;stroke:#333333!important;stroke-width:1;}#graph-div :root{--mermaid-font-family:"trebuchet ms",verdana,arial,sans-serif;}</style><g></g><defs><marker orient="auto" markerHeight="240" markerWidth="190" refY="7" refX="0" id="MD_PARENT_START"><path d="M 18,7 L9,13 L1,7 L9,1 Z"></path></marker></defs><defs><marker orient="auto" markerHeight="28" markerWidth="20" refY="7" refX="19" id="MD_PARENT_END"><path d="M 18,7 L9,13 L1,7 L9,1 Z"></path></marker></defs><defs><marker orient="auto" markerHeight="18" markerWidth="18" refY="9" refX="0" id="ONLY_ONE_START"><path d="M9,0 L9,18 M15,0 L15,18" fill="none" stroke="gray"></path></marker></defs><defs><marker orient="auto" markerHeight="18" markerWidth="18" refY="9" refX="18" id="ONLY_ONE_END"><path d="M3,0 L3,18 M9,0 L9,18" fill="none" stroke="gray"></path></marker></defs><defs><marker orient="auto" markerHeight="18" markerWidth="30" refY="9" refX="0" id="ZERO_OR_ONE_START"><circle r="6" cy="9" cx="21" fill="white" stroke="gray"></circle><path d="M9,0 L9,18" fill="none" stroke="gray"></path></marker></defs><defs><marker orient="auto" markerHeight="18" markerWidth="30" refY="9" refX="30" id="ZERO_OR_ONE_END"><circle r="6" cy="9" cx="9" fill="white" stroke="gray"></circle><path d="M21,0 L21,18" fill="none" stroke="gray"></path></marker></defs><defs><marker orient="auto" markerHeight="36" markerWidth="45" refY="18" refX="18" id="ONE_OR_MORE_START"><path d="M0,18 Q 18,0 36,18 Q 18,36 0,18 M42,9 L42,27" fill="none" stroke="gray"></path></marker></defs><defs><marker orient="auto" markerHeight="36" markerWidth="45" refY="18" refX="27" id="ONE_OR_MORE_END"><path d="M3,9 L3,27 M9,18 Q27,0 45,18 Q27,36 9,18" fill="none" stroke="gray"></path></marker></defs><defs><marker orient="auto" markerHeight="36" markerWidth="57" refY="18" refX="18" id="ZERO_OR_MORE_START"><circle r="6" cy="18" cx="48" fill="white" stroke="gray"></circle><path d="M0,18 Q18,0 36,18 Q18,36 0,18" fill="none" stroke="gray"></path></marker></defs><defs><marker orient="auto" markerHeight="36" markerWidth="57" refY="18" refX="39" id="ZERO_OR_MORE_END"><circle r="6" cy="18" cx="9" fill="white" stroke="gray"></circle><path d="M21,18 Q39,0 57,18 Q39,36 21,18" fill="none" stroke="gray"></path></marker></defs><g transform="translate(20,20 )" id="entity-POPULATION-cc6db4fd-770d-5fe5-84b7-eea1c8960ab2"><rect height="134" width="220.21444702148438" y="0" x="0" class="er entityBox"></rect><text style="dominant-baseline: middle; text-anchor: middle; font-size: 12px;" transform="translate(110.10722351074219,12)" y="0" x="0" id="text-entity-POPULATION-cc6db4fd-770d-5fe5-84b7-eea1c8960ab2" class="er entityLabel">POPULATION(人口)</text><rect height="22" width="81.83177185058594" y="24" x="0" class="er attributeBoxOdd"></rect><text style="dominant-baseline: middle; font-size: 10.2px;" transform="translate(5,35)" y="0" x="0" id="text-entity-POPULATION-cc6db4fd-770d-5fe5-84b7-eea1c8960ab2-attr-1-type" class="er entityLabel">DISTRICT_CODE</text><rect height="22" width="53.69499206542969" y="24" x="81.83177185058594" class="er attributeBoxOdd"></rect><text style="dominant-baseline: middle; font-size: 10.2px;" transform="translate(86.83177185058594,35)" y="0" x="0" id="text-entity-POPULATION-cc6db4fd-770d-5fe5-84b7-eea1c8960ab2-attr-1-name" class="er entityLabel">VARCHAR</text><rect height="22" width="22.68768310546875" y="24" x="135.52676391601562" class="er attributeBoxOdd"></rect><text style="dominant-baseline: middle; font-size: 10.2px;" transform="translate(140.52676391601562,35)" y="0" x="0" id="text-entity-POPULATION-cc6db4fd-770d-5fe5-84b7-eea1c8960ab2-attr-1-key" class="er entityLabel">PK</text><rect height="22" width="62" y="24" x="158.21444702148438" class="er attributeBoxOdd"></rect><text style="dominant-baseline: middle; font-size: 10.2px;" transform="translate(163.21444702148438,35)" y="0" x="0" id="text-entity-POPULATION-cc6db4fd-770d-5fe5-84b7-eea1c8960ab2-attr-1-comment" class="er entityLabel">地区コード</text><rect height="22" width="81.83177185058594" y="46" x="0" class="er attributeBoxEven"></rect><text style="dominant-baseline: middle; font-size: 10.2px;" transform="translate(5,57)" y="0" x="0" id="text-entity-POPULATION-cc6db4fd-770d-5fe5-84b7-eea1c8960ab2-attr-2-type" class="er entityLabel">DISTRICT_NAME</text><rect height="22" width="53.69499206542969" y="46" x="81.83177185058594" class="er attributeBoxEven"></rect><text style="dominant-baseline: middle; font-size: 10.2px;" transform="translate(86.83177185058594,57)" y="0" x="0" id="text-entity-POPULATION-cc6db4fd-770d-5fe5-84b7-eea1c8960ab2-attr-2-name" class="er entityLabel">VARCHAR</text><rect height="22" width="22.68768310546875" y="46" x="135.52676391601562" class="er attributeBoxEven"></rect><text style="dominant-baseline: middle; font-size: 10.2px;" transform="translate(140.52676391601562,57)" y="0" x="0" id="text-entity-POPULATION-cc6db4fd-770d-5fe5-84b7-eea1c8960ab2-attr-2-key" class="er entityLabel"></text><rect height="22" width="62" y="46" x="158.21444702148438" class="er attributeBoxEven"></rect><text style="dominant-baseline: middle; font-size: 10.2px;" transform="translate(163.21444702148438,57)" y="0" x="0" id="text-entity-POPULATION-cc6db4fd-770d-5fe5-84b7-eea1c8960ab2-attr-2-comment" class="er entityLabel">地区名</text><rect height="22" width="81.83177185058594" y="68" x="0" class="er attributeBoxOdd"></rect><text style="dominant-baseline: middle; font-size: 10.2px;" transform="translate(5,79)" y="0" x="0" id="text-entity-POPULATION-cc6db4fd-770d-5fe5-84b7-eea1c8960ab2-attr-3-type" class="er entityLabel">TOTAL_AMT</text><rect height="22" width="53.69499206542969" y="68" x="81.83177185058594" class="er attributeBoxOdd"></rect><text style="dominant-baseline: middle; font-size: 10.2px;" transform="translate(86.83177185058594,79)" y="0" x="0" id="text-entity-POPULATION-cc6db4fd-770d-5fe5-84b7-eea1c8960ab2-attr-3-name" class="er entityLabel">INTEGER</text><rect height="22" width="22.68768310546875" y="68" x="135.52676391601562" class="er attributeBoxOdd"></rect><text style="dominant-baseline: middle; font-size: 10.2px;" transform="translate(140.52676391601562,79)" y="0" x="0" id="text-entity-POPULATION-cc6db4fd-770d-5fe5-84b7-eea1c8960ab2-attr-3-key" class="er entityLabel"></text><rect height="22" width="62" y="68" x="158.21444702148438" class="er attributeBoxOdd"></rect><text style="dominant-baseline: middle; font-size: 10.2px;" transform="translate(163.21444702148438,79)" y="0" x="0" id="text-entity-POPULATION-cc6db4fd-770d-5fe5-84b7-eea1c8960ab2-attr-3-comment" class="er entityLabel">総数</text><rect height="22" width="81.83177185058594" y="90" x="0" class="er attributeBoxEven"></rect><text style="dominant-baseline: middle; font-size: 10.2px;" transform="translate(5,101)" y="0" x="0" id="text-entity-POPULATION-cc6db4fd-770d-5fe5-84b7-eea1c8960ab2-attr-4-type" class="er entityLabel">MALE_AMT</text><rect height="22" width="53.69499206542969" y="90" x="81.83177185058594" class="er attributeBoxEven"></rect><text style="dominant-baseline: middle; font-size: 10.2px;" transform="translate(86.83177185058594,101)" y="0" x="0" id="text-entity-POPULATION-cc6db4fd-770d-5fe5-84b7-eea1c8960ab2-attr-4-name" class="er entityLabel">INTEGER</text><rect height="22" width="22.68768310546875" y="90" x="135.52676391601562" class="er attributeBoxEven"></rect><text style="dominant-baseline: middle; font-size: 10.2px;" transform="translate(140.52676391601562,101)" y="0" x="0" id="text-entity-POPULATION-cc6db4fd-770d-5fe5-84b7-eea1c8960ab2-attr-4-key" class="er entityLabel"></text><rect height="22" width="62" y="90" x="158.21444702148438" class="er attributeBoxEven"></rect><text style="dominant-baseline: middle; font-size: 10.2px;" transform="translate(163.21444702148438,101)" y="0" x="0" id="text-entity-POPULATION-cc6db4fd-770d-5fe5-84b7-eea1c8960ab2-attr-4-comment" class="er entityLabel">男性数</text><rect height="22" width="81.83177185058594" y="112" x="0" class="er attributeBoxOdd"></rect><text style="dominant-baseline: middle; font-size: 10.2px;" transform="translate(5,123)" y="0" x="0" id="text-entity-POPULATION-cc6db4fd-770d-5fe5-84b7-eea1c8960ab2-attr-5-type" class="er entityLabel">FEMALE_AMT</text><rect height="22" width="53.69499206542969" y="112" x="81.83177185058594" class="er attributeBoxOdd"></rect><text style="dominant-baseline: middle; font-size: 10.2px;" transform="translate(86.83177185058594,123)" y="0" x="0" id="text-entity-POPULATION-cc6db4fd-770d-5fe5-84b7-eea1c8960ab2-attr-5-name" class="er entityLabel">INTEGER</text><rect height="22" width="22.68768310546875" y="112" x="135.52676391601562" class="er attributeBoxOdd"></rect><text style="dominant-baseline: middle; font-size: 10.2px;" transform="translate(140.52676391601562,123)" y="0" x="0" id="text-entity-POPULATION-cc6db4fd-770d-5fe5-84b7-eea1c8960ab2-attr-5-key" class="er entityLabel"></text><rect height="22" width="62" y="112" x="158.21444702148438" class="er attributeBoxOdd"></rect><text style="dominant-baseline: middle; font-size: 10.2px;" transform="translate(163.21444702148438,123)" y="0" x="0" id="text-entity-POPULATION-cc6db4fd-770d-5fe5-84b7-eea1c8960ab2-attr-5-comment" class="er entityLabel">女性数</text></g></svg>