<svg aria-roledescription="er" role="graphics-document document" viewBox="0 0 565.2173461914062 320" style="max-width: 100%;" xmlns="http://www.w3.org/2000/svg" width="100%" id="graph-div" height="100%" xmlns:xlink="http://www.w3.org/1999/xlink"><style>@import url("https://cdnjs.cloudflare.com/ajax/libs/font-awesome/6.5.1/css/all.min.css");'</style><style>#graph-div{font-family:"trebuchet ms",verdana,arial,sans-serif;font-size:16px;fill:#333;}#graph-div .error-icon{fill:#552222;}#graph-div .error-text{fill:#552222;stroke:#552222;}#graph-div .edge-thickness-normal{stroke-width:2px;}#graph-div .edge-thickness-thick{stroke-width:3.5px;}#graph-div .edge-pattern-solid{stroke-dasharray:0;}#graph-div .edge-pattern-dashed{stroke-dasharray:3;}#graph-div .edge-pattern-dotted{stroke-dasharray:2;}#graph-div .marker{fill:#333333;stroke:#333333;}#graph-div .marker.cross{stroke:#333333;}#graph-div svg{font-family:"trebuchet ms",verdana,arial,sans-serif;font-size:16px;}#graph-div .entityBox{fill:#ECECFF;stroke:#9370DB;}#graph-div .attributeBoxOdd{fill:#ffffff;stroke:#9370DB;}#graph-div .attributeBoxEven{fill:#f2f2f2;stroke:#9370DB;}#graph-div .relationshipLabelBox{fill:hsl(80, 100%, 96.2745098039%);opacity:0.7;background-color:hsl(80, 100%, 96.2745098039%);}#graph-div .relationshipLabelBox rect{opacity:0.5;}#graph-div .relationshipLine{stroke:#333333;}#graph-div .entityTitleText{text-anchor:middle;font-size:18px;fill:#333;}#graph-div #MD_PARENT_START{fill:#f5f5f5!important;stroke:#333333!important;stroke-width:1;}#graph-div #MD_PARENT_END{fill:#f5f5f5!important;stroke:#333333!important;stroke-width:1;}#graph-div :root{--mermaid-font-family:"trebuchet ms",verdana,arial,sans-serif;}</style><g></g><defs><marker orient="auto" markerHeight="240" markerWidth="190" refY="7" refX="0" id="MD_PARENT_START"><path d="M 18,7 L9,13 L1,7 L9,1 Z"></path></marker></defs><defs><marker orient="auto" markerHeight="28" markerWidth="20" refY="7" refX="19" id="MD_PARENT_END"><path d="M 18,7 L9,13 L1,7 L9,1 Z"></path></marker></defs><defs><marker orient="auto" markerHeight="18" markerWidth="18" refY="9" refX="0" id="ONLY_ONE_START"><path d="M9,0 L9,18 M15,0 L15,18" fill="none" stroke="gray"></path></marker></defs><defs><marker orient="auto" markerHeight="18" markerWidth="18" refY="9" refX="18" id="ONLY_ONE_END"><path d="M3,0 L3,18 M9,0 L9,18" fill="none" stroke="gray"></path></marker></defs><defs><marker orient="auto" markerHeight="18" markerWidth="30" refY="9" refX="0" id="ZERO_OR_ONE_START"><circle r="6" cy="9" cx="21" fill="white" stroke="gray"></circle><path d="M9,0 L9,18" fill="none" stroke="gray"></path></marker></defs><defs><marker orient="auto" markerHeight="18" markerWidth="30" refY="9" refX="30" id="ZERO_OR_ONE_END"><circle r="6" cy="9" cx="9" fill="white" stroke="gray"></circle><path d="M21,0 L21,18" fill="none" stroke="gray"></path></marker></defs><defs><marker orient="auto" markerHeight="36" markerWidth="45" refY="18" refX="18" id="ONE_OR_MORE_START"><path d="M0,18 Q 18,0 36,18 Q 18,36 0,18 M42,9 L42,27" fill="none" stroke="gray"></path></marker></defs><defs><marker orient="auto" markerHeight="36" markerWidth="45" refY="18" refX="27" id="ONE_OR_MORE_END"><path d="M3,9 L3,27 M9,18 Q27,0 45,18 Q27,36 9,18" fill="none" stroke="gray"></path></marker></defs><defs><marker orient="auto" markerHeight="36" markerWidth="57" refY="18" refX="18" id="ZERO_OR_MORE_START"><circle r="6" cy="18" cx="48" fill="white" stroke="gray"></circle><path d="M0,18 Q18,0 36,18 Q18,36 0,18" fill="none" stroke="gray"></path></marker></defs><defs><marker orient="auto" markerHeight="36" markerWidth="57" refY="18" refX="39" id="ZERO_OR_MORE_END"><circle r="6" cy="18" cx="9" fill="white" stroke="gray"></circle><path d="M21,18 Q39,0 57,18 Q39,36 21,18" fill="none" stroke="gray"></path></marker></defs><path style="stroke: gray; fill: none;" marker-start="url(#ONLY_ONE_START)" marker-end="url(#ONE_OR_MORE_END)" d="M116.654,88L116.654,96.333C116.654,104.667,116.654,121.333,128.942,138C141.23,154.667,165.806,171.333,178.094,179.667L190.382,188" class="er relationshipLine"></path><path style="stroke: gray; fill: none;" marker-start="url(#ONLY_ONE_START)" marker-end="url(#ONE_OR_MORE_END)" d="M429.262,88L429.262,96.333C429.262,104.667,429.262,121.333,416.974,138C404.686,154.667,380.11,171.333,367.822,179.667L355.534,188" class="er relationshipLine"></path><g transform="translate(20,20 )" id="entity-PORT-c16c5361-e672-533d-86f5-43be5e29f187"><rect height="68" width="193.30751037597656" y="0" x="0" class="er entityBox"></rect><text style="dominant-baseline: middle; text-anchor: middle; font-size: 12px;" transform="translate(96.65375518798828,12)" y="0" x="0" id="text-entity-PORT-c16c5361-e672-533d-86f5-43be5e29f187" class="er entityLabel">PORT(港)</text><rect height="22" width="65.11233520507812" y="24" x="0" class="er attributeBoxOdd"></rect><text style="dominant-baseline: middle; font-size: 10.2px;" transform="translate(5,35)" y="0" x="0" id="text-entity-PORT-c16c5361-e672-533d-86f5-43be5e29f187-attr-1-type" class="er entityLabel">PORT_CODE</text><rect height="22" width="53.69499206542969" y="24" x="65.11233520507812" class="er attributeBoxOdd"></rect><text style="dominant-baseline: middle; font-size: 10.2px;" transform="translate(70.11233520507812,35)" y="0" x="0" id="text-entity-PORT-c16c5361-e672-533d-86f5-43be5e29f187-attr-1-name" class="er entityLabel">VARCHAR</text><rect height="22" width="22.68768310546875" y="24" x="118.80732727050781" class="er attributeBoxOdd"></rect><text style="dominant-baseline: middle; font-size: 10.2px;" transform="translate(123.80732727050781,35)" y="0" x="0" id="text-entity-PORT-c16c5361-e672-533d-86f5-43be5e29f187-attr-1-key" class="er entityLabel">PK</text><rect height="22" width="51.8125" y="24" x="141.49501037597656" class="er attributeBoxOdd"></rect><text style="dominant-baseline: middle; font-size: 10.2px;" transform="translate(146.49501037597656,35)" y="0" x="0" id="text-entity-PORT-c16c5361-e672-533d-86f5-43be5e29f187-attr-1-comment" class="er entityLabel">港コード</text><rect height="22" width="65.11233520507812" y="46" x="0" class="er attributeBoxEven"></rect><text style="dominant-baseline: middle; font-size: 10.2px;" transform="translate(5,57)" y="0" x="0" id="text-entity-PORT-c16c5361-e672-533d-86f5-43be5e29f187-attr-2-type" class="er entityLabel">PORT_NAME</text><rect height="22" width="53.69499206542969" y="46" x="65.11233520507812" class="er attributeBoxEven"></rect><text style="dominant-baseline: middle; font-size: 10.2px;" transform="translate(70.11233520507812,57)" y="0" x="0" id="text-entity-PORT-c16c5361-e672-533d-86f5-43be5e29f187-attr-2-name" class="er entityLabel">VARCHAR</text><rect height="22" width="22.68768310546875" y="46" x="118.80732727050781" class="er attributeBoxEven"></rect><text style="dominant-baseline: middle; font-size: 10.2px;" transform="translate(123.80732727050781,57)" y="0" x="0" id="text-entity-PORT-c16c5361-e672-533d-86f5-43be5e29f187-attr-2-key" class="er entityLabel"></text><rect height="22" width="51.8125" y="46" x="141.49501037597656" class="er attributeBoxEven"></rect><text style="dominant-baseline: middle; font-size: 10.2px;" transform="translate(146.49501037597656,57)" y="0" x="0" id="text-entity-PORT-c16c5361-e672-533d-86f5-43be5e29f187-attr-2-comment" class="er entityLabel">港名</text></g><g transform="translate(157.26961517333984,188 )" id="entity-IMMIGRATION-2fe8163d-88b2-5ccf-ac08-9b34dc079c00"><rect height="112" width="231.37696838378906" y="0" x="0" class="er entityBox"></rect><text style="dominant-baseline: middle; text-anchor: middle; font-size: 12px;" transform="translate(115.68848419189453,12)" y="0" x="0" id="text-entity-IMMIGRATION-2fe8163d-88b2-5ccf-ac08-9b34dc079c00" class="er entityLabel">IMMIGRATION(入出国集計)</text><rect height="22" width="72.58804321289062" y="24" x="0" class="er attributeBoxOdd"></rect><text style="dominant-baseline: middle; font-size: 10.2px;" transform="translate(5,35)" y="0" x="0" id="text-entity-IMMIGRATION-2fe8163d-88b2-5ccf-ac08-9b34dc079c00-attr-1-type" class="er entityLabel">PORT_CODE</text><rect height="22" width="53.69499206542969" y="24" x="72.58804321289062" class="er attributeBoxOdd"></rect><text style="dominant-baseline: middle; font-size: 10.2px;" transform="translate(77.58804321289062,35)" y="0" x="0" id="text-entity-IMMIGRATION-2fe8163d-88b2-5ccf-ac08-9b34dc079c00-attr-1-name" class="er entityLabel">VARCHAR</text><rect height="22" width="22.68768310546875" y="24" x="126.28303527832031" class="er attributeBoxOdd"></rect><text style="dominant-baseline: middle; font-size: 10.2px;" transform="translate(131.2830352783203,35)" y="0" x="0" id="text-entity-IMMIGRATION-2fe8163d-88b2-5ccf-ac08-9b34dc079c00-attr-1-key" class="er entityLabel">PK</text><rect height="22" width="82.40625" y="24" x="148.97071838378906" class="er attributeBoxOdd"></rect><text style="dominant-baseline: middle; font-size: 10.2px;" transform="translate(153.97071838378906,35)" y="0" x="0" id="text-entity-IMMIGRATION-2fe8163d-88b2-5ccf-ac08-9b34dc079c00-attr-1-comment" class="er entityLabel">港コード</text><rect height="22" width="72.58804321289062" y="46" x="0" class="er attributeBoxEven"></rect><text style="dominant-baseline: middle; font-size: 10.2px;" transform="translate(5,57)" y="0" x="0" id="text-entity-IMMIGRATION-2fe8163d-88b2-5ccf-ac08-9b34dc079c00-attr-2-type" class="er entityLabel">GROUP_CODE</text><rect height="22" width="53.69499206542969" y="46" x="72.58804321289062" class="er attributeBoxEven"></rect><text style="dominant-baseline: middle; font-size: 10.2px;" transform="translate(77.58804321289062,57)" y="0" x="0" id="text-entity-IMMIGRATION-2fe8163d-88b2-5ccf-ac08-9b34dc079c00-attr-2-name" class="er entityLabel">VARCHAR</text><rect height="22" width="22.68768310546875" y="46" x="126.28303527832031" class="er attributeBoxEven"></rect><text style="dominant-baseline: middle; font-size: 10.2px;" transform="translate(131.2830352783203,57)" y="0" x="0" id="text-entity-IMMIGRATION-2fe8163d-88b2-5ccf-ac08-9b34dc079c00-attr-2-key" class="er entityLabel">PK</text><rect height="22" width="82.40625" y="46" x="148.97071838378906" class="er attributeBoxEven"></rect><text style="dominant-baseline: middle; font-size: 10.2px;" transform="translate(153.97071838378906,57)" y="0" x="0" id="text-entity-IMMIGRATION-2fe8163d-88b2-5ccf-ac08-9b34dc079c00-attr-2-comment" class="er entityLabel">グループコード</text><rect height="22" width="72.58804321289062" y="68" x="0" class="er attributeBoxOdd"></rect><text style="dominant-baseline: middle; font-size: 10.2px;" transform="translate(5,79)" y="0" x="0" id="text-entity-IMMIGRATION-2fe8163d-88b2-5ccf-ac08-9b34dc079c00-attr-3-type" class="er entityLabel">KIND_CODE</text><rect height="22" width="53.69499206542969" y="68" x="72.58804321289062" class="er attributeBoxOdd"></rect><text style="dominant-baseline: middle; font-size: 10.2px;" transform="translate(77.58804321289062,79)" y="0" x="0" id="text-entity-IMMIGRATION-2fe8163d-88b2-5ccf-ac08-9b34dc079c00-attr-3-name" class="er entityLabel">VARCHAR</text><rect height="22" width="22.68768310546875" y="68" x="126.28303527832031" class="er attributeBoxOdd"></rect><text style="dominant-baseline: middle; font-size: 10.2px;" transform="translate(131.2830352783203,79)" y="0" x="0" id="text-entity-IMMIGRATION-2fe8163d-88b2-5ccf-ac08-9b34dc079c00-attr-3-key" class="er entityLabel">PK</text><rect height="22" width="82.40625" y="68" x="148.97071838378906" class="er attributeBoxOdd"></rect><text style="dominant-baseline: middle; font-size: 10.2px;" transform="translate(153.97071838378906,79)" y="0" x="0" id="text-entity-IMMIGRATION-2fe8163d-88b2-5ccf-ac08-9b34dc079c00-attr-3-comment" class="er entityLabel">種別コード</text><rect height="22" width="72.58804321289062" y="90" x="0" class="er attributeBoxEven"></rect><text style="dominant-baseline: middle; font-size: 10.2px;" transform="translate(5,101)" y="0" x="0" id="text-entity-IMMIGRATION-2fe8163d-88b2-5ccf-ac08-9b34dc079c00-attr-4-type" class="er entityLabel">AMT</text><rect height="22" width="53.69499206542969" y="90" x="72.58804321289062" class="er attributeBoxEven"></rect><text style="dominant-baseline: middle; font-size: 10.2px;" transform="translate(77.58804321289062,101)" y="0" x="0" id="text-entity-IMMIGRATION-2fe8163d-88b2-5ccf-ac08-9b34dc079c00-attr-4-name" class="er entityLabel">INTEGER</text><rect height="22" width="22.68768310546875" y="90" x="126.28303527832031" class="er attributeBoxEven"></rect><text style="dominant-baseline: middle; font-size: 10.2px;" transform="translate(131.2830352783203,101)" y="0" x="0" id="text-entity-IMMIGRATION-2fe8163d-88b2-5ccf-ac08-9b34dc079c00-attr-4-key" class="er entityLabel"></text><rect height="22" width="82.40625" y="90" x="148.97071838378906" class="er attributeBoxEven"></rect><text style="dominant-baseline: middle; font-size: 10.2px;" transform="translate(153.97071838378906,101)" y="0" x="0" id="text-entity-IMMIGRATION-2fe8163d-88b2-5ccf-ac08-9b34dc079c00-attr-4-comment" class="er entityLabel">人数</text></g><g transform="translate(313.30751037597656,20 )" id="entity-GRP-d7f7392e-4834-5ac4-923b-93b72356d4d9"><rect height="68" width="231.9098663330078" y="0" x="0" class="er entityBox"></rect><text style="dominant-baseline: middle; text-anchor: middle; font-size: 12px;" transform="translate(115.9549331665039,12)" y="0" x="0" id="text-entity-GRP-d7f7392e-4834-5ac4-923b-93b72356d4d9" class="er entityLabel">GRP(グループ)</text><rect height="22" width="73.12094116210938" y="24" x="0" class="er attributeBoxOdd"></rect><text style="dominant-baseline: middle; font-size: 10.2px;" transform="translate(5,35)" y="0" x="0" id="text-entity-GRP-d7f7392e-4834-5ac4-923b-93b72356d4d9-attr-1-type" class="er entityLabel">GROUP_CODE</text><rect height="22" width="53.69499206542969" y="24" x="73.12094116210938" class="er attributeBoxOdd"></rect><text style="dominant-baseline: middle; font-size: 10.2px;" transform="translate(78.12094116210938,35)" y="0" x="0" id="text-entity-GRP-d7f7392e-4834-5ac4-923b-93b72356d4d9-attr-1-name" class="er entityLabel">VARCHAR</text><rect height="22" width="22.68768310546875" y="24" x="126.81593322753906" class="er attributeBoxOdd"></rect><text style="dominant-baseline: middle; font-size: 10.2px;" transform="translate(131.81593322753906,35)" y="0" x="0" id="text-entity-GRP-d7f7392e-4834-5ac4-923b-93b72356d4d9-attr-1-key" class="er entityLabel">PK</text><rect height="22" width="82.40625" y="24" x="149.5036163330078" class="er attributeBoxOdd"></rect><text style="dominant-baseline: middle; font-size: 10.2px;" transform="translate(154.5036163330078,35)" y="0" x="0" id="text-entity-GRP-d7f7392e-4834-5ac4-923b-93b72356d4d9-attr-1-comment" class="er entityLabel">グループコード</text><rect height="22" width="73.12094116210938" y="46" x="0" class="er attributeBoxEven"></rect><text style="dominant-baseline: middle; font-size: 10.2px;" transform="translate(5,57)" y="0" x="0" id="text-entity-GRP-d7f7392e-4834-5ac4-923b-93b72356d4d9-attr-2-type" class="er entityLabel">GROUP_NAME</text><rect height="22" width="53.69499206542969" y="46" x="73.12094116210938" class="er attributeBoxEven"></rect><text style="dominant-baseline: middle; font-size: 10.2px;" transform="translate(78.12094116210938,57)" y="0" x="0" id="text-entity-GRP-d7f7392e-4834-5ac4-923b-93b72356d4d9-attr-2-name" class="er entityLabel">VARCHAR</text><rect height="22" width="22.68768310546875" y="46" x="126.81593322753906" class="er attributeBoxEven"></rect><text style="dominant-baseline: middle; font-size: 10.2px;" transform="translate(131.81593322753906,57)" y="0" x="0" id="text-entity-GRP-d7f7392e-4834-5ac4-923b-93b72356d4d9-attr-2-key" class="er entityLabel"></text><rect height="22" width="82.40625" y="46" x="149.5036163330078" class="er attributeBoxEven"></rect><text style="dominant-baseline: middle; font-size: 10.2px;" transform="translate(154.5036163330078,57)" y="0" x="0" id="text-entity-GRP-d7f7392e-4834-5ac4-923b-93b72356d4d9-attr-2-comment" class="er entityLabel">グループ名</text></g><rect height="14" width="18.69921875" y="141.14083862304688" x="128.44979858398438" class="er relationshipLabelBox"></rect><text style="text-anchor: middle; dominant-baseline: middle; font-size: 12px;" y="148.14083862304688" x="137.79940795898438" id="rel3" class="er relationshipLabel">1:N</text><rect height="14" width="18.69921875" y="141.1408233642578" x="398.7669982910156" class="er relationshipLabelBox"></rect><text style="text-anchor: middle; dominant-baseline: middle; font-size: 12px;" y="148.1408233642578" x="408.1166076660156" id="rel4" class="er relationshipLabel">1:N</text></svg>