<svg aria-roledescription="er" role="graphics-document document" viewBox="0 0 548.814208984375 408" style="max-width: 100%;" xmlns="http://www.w3.org/2000/svg" width="100%" id="graph-div" height="100%" xmlns:xlink="http://www.w3.org/1999/xlink"><style>@import url("https://cdnjs.cloudflare.com/ajax/libs/font-awesome/6.5.1/css/all.min.css");'</style><style>#graph-div{font-family:"trebuchet ms",verdana,arial,sans-serif;font-size:16px;fill:#333;}#graph-div .error-icon{fill:#552222;}#graph-div .error-text{fill:#552222;stroke:#552222;}#graph-div .edge-thickness-normal{stroke-width:2px;}#graph-div .edge-thickness-thick{stroke-width:3.5px;}#graph-div .edge-pattern-solid{stroke-dasharray:0;}#graph-div .edge-pattern-dashed{stroke-dasharray:3;}#graph-div .edge-pattern-dotted{stroke-dasharray:2;}#graph-div .marker{fill:#333333;stroke:#333333;}#graph-div .marker.cross{stroke:#333333;}#graph-div svg{font-family:"trebuchet ms",verdana,arial,sans-serif;font-size:16px;}#graph-div .entityBox{fill:#ECECFF;stroke:#9370DB;}#graph-div .attributeBoxOdd{fill:#ffffff;stroke:#9370DB;}#graph-div .attributeBoxEven{fill:#f2f2f2;stroke:#9370DB;}#graph-div .relationshipLabelBox{fill:hsl(80, 100%, 96.2745098039%);opacity:0.7;background-color:hsl(80, 100%, 96.2745098039%);}#graph-div .relationshipLabelBox rect{opacity:0.5;}#graph-div .relationshipLine{stroke:#333333;}#graph-div .entityTitleText{text-anchor:middle;font-size:18px;fill:#333;}#graph-div #MD_PARENT_START{fill:#f5f5f5!important;stroke:#333333!important;stroke-width:1;}#graph-div #MD_PARENT_END{fill:#f5f5f5!important;stroke:#333333!important;stroke-width:1;}#graph-div :root{--mermaid-font-family:"trebuchet ms",verdana,arial,sans-serif;}</style><g></g><defs><marker orient="auto" markerHeight="240" markerWidth="190" refY="7" refX="0" id="MD_PARENT_START"><path d="M 18,7 L9,13 L1,7 L9,1 Z"></path></marker></defs><defs><marker orient="auto" markerHeight="28" markerWidth="20" refY="7" refX="19" id="MD_PARENT_END"><path d="M 18,7 L9,13 L1,7 L9,1 Z"></path></marker></defs><defs><marker orient="auto" markerHeight="18" markerWidth="18" refY="9" refX="0" id="ONLY_ONE_START"><path d="M9,0 L9,18 M15,0 L15,18" fill="none" stroke="gray"></path></marker></defs><defs><marker orient="auto" markerHeight="18" markerWidth="18" refY="9" refX="18" id="ONLY_ONE_END"><path d="M3,0 L3,18 M9,0 L9,18" fill="none" stroke="gray"></path></marker></defs><defs><marker orient="auto" markerHeight="18" markerWidth="30" refY="9" refX="0" id="ZERO_OR_ONE_START"><circle r="6" cy="9" cx="21" fill="white" stroke="gray"></circle><path d="M9,0 L9,18" fill="none" stroke="gray"></path></marker></defs><defs><marker orient="auto" markerHeight="18" markerWidth="30" refY="9" refX="30" id="ZERO_OR_ONE_END"><circle r="6" cy="9" cx="9" fill="white" stroke="gray"></circle><path d="M21,0 L21,18" fill="none" stroke="gray"></path></marker></defs><defs><marker orient="auto" markerHeight="36" markerWidth="45" refY="18" refX="18" id="ONE_OR_MORE_START"><path d="M0,18 Q 18,0 36,18 Q 18,36 0,18 M42,9 L42,27" fill="none" stroke="gray"></path></marker></defs><defs><marker orient="auto" markerHeight="36" markerWidth="45" refY="18" refX="27" id="ONE_OR_MORE_END"><path d="M3,9 L3,27 M9,18 Q27,0 45,18 Q27,36 9,18" fill="none" stroke="gray"></path></marker></defs><defs><marker orient="auto" markerHeight="36" markerWidth="57" refY="18" refX="18" id="ZERO_OR_MORE_START"><circle r="6" cy="18" cx="48" fill="white" stroke="gray"></circle><path d="M0,18 Q18,0 36,18 Q18,36 0,18" fill="none" stroke="gray"></path></marker></defs><defs><marker orient="auto" markerHeight="36" markerWidth="57" refY="18" refX="39" id="ZERO_OR_MORE_END"><circle r="6" cy="18" cx="9" fill="white" stroke="gray"></circle><path d="M21,18 Q39,0 57,18 Q39,36 21,18" fill="none" stroke="gray"></path></marker></defs><path style="stroke: gray; fill: none;" marker-start="url(#ONLY_ONE_START)" marker-end="url(#ONE_OR_MORE_END)" d="M118.936,88L118.936,96.333C118.936,104.667,118.936,121.333,127.392,138C135.848,154.667,152.759,171.333,161.215,179.667L169.671,188" class="er relationshipLine"></path><path style="stroke: gray; fill: none;" marker-start="url(#ONLY_ONE_START)" marker-end="url(#ONE_OR_MORE_END)" d="M423.343,88L423.343,96.333C423.343,104.667,423.343,121.333,414.887,138C406.432,154.667,389.52,171.333,381.064,179.667L372.609,188" class="er relationshipLine"></path><g transform="translate(20,20 )" id="entity-AGEGRP-dba0b5a7-6b36-5275-97c0-7e0b1abfe2fe"><rect height="68" width="197.87208557128906" y="0" x="0" class="er entityBox"></rect><text style="dominant-baseline: middle; text-anchor: middle; font-size: 12px;" transform="translate(98.93604278564453,12)" y="0" x="0" id="text-entity-AGEGRP-dba0b5a7-6b36-5275-97c0-7e0b1abfe2fe" class="er entityLabel">AGE_GRP(年齢階層)</text><rect height="22" width="60.489410400390625" y="24" x="0" class="er attributeBoxOdd"></rect><text style="dominant-baseline: middle; font-size: 10.2px;" transform="translate(5,35)" y="0" x="0" id="text-entity-AGEGRP-dba0b5a7-6b36-5275-97c0-7e0b1abfe2fe-attr-1-type" class="er entityLabel">AGE_CODE</text><rect height="22" width="53.69499206542969" y="24" x="60.489410400390625" class="er attributeBoxOdd"></rect><text style="dominant-baseline: middle; font-size: 10.2px;" transform="translate(65.48941040039062,35)" y="0" x="0" id="text-entity-AGEGRP-dba0b5a7-6b36-5275-97c0-7e0b1abfe2fe-attr-1-name" class="er entityLabel">VARCHAR</text><rect height="22" width="22.68768310546875" y="24" x="114.18440246582031" class="er attributeBoxOdd"></rect><text style="dominant-baseline: middle; font-size: 10.2px;" transform="translate(119.18440246582031,35)" y="0" x="0" id="text-entity-AGEGRP-dba0b5a7-6b36-5275-97c0-7e0b1abfe2fe-attr-1-key" class="er entityLabel">PK</text><rect height="22" width="61" y="24" x="136.87208557128906" class="er attributeBoxOdd"></rect><text style="dominant-baseline: middle; font-size: 10.2px;" transform="translate(141.87208557128906,35)" y="0" x="0" id="text-entity-AGEGRP-dba0b5a7-6b36-5275-97c0-7e0b1abfe2fe-attr-1-comment" class="er entityLabel">年齢コード</text><rect height="22" width="60.489410400390625" y="46" x="0" class="er attributeBoxEven"></rect><text style="dominant-baseline: middle; font-size: 10.2px;" transform="translate(5,57)" y="0" x="0" id="text-entity-AGEGRP-dba0b5a7-6b36-5275-97c0-7e0b1abfe2fe-attr-2-type" class="er entityLabel">AGE_NAME</text><rect height="22" width="53.69499206542969" y="46" x="60.489410400390625" class="er attributeBoxEven"></rect><text style="dominant-baseline: middle; font-size: 10.2px;" transform="translate(65.48941040039062,57)" y="0" x="0" id="text-entity-AGEGRP-dba0b5a7-6b36-5275-97c0-7e0b1abfe2fe-attr-2-name" class="er entityLabel">VARCHAR</text><rect height="22" width="22.68768310546875" y="46" x="114.18440246582031" class="er attributeBoxEven"></rect><text style="dominant-baseline: middle; font-size: 10.2px;" transform="translate(119.18440246582031,57)" y="0" x="0" id="text-entity-AGEGRP-dba0b5a7-6b36-5275-97c0-7e0b1abfe2fe-attr-2-key" class="er entityLabel"></text><rect height="22" width="61" y="46" x="136.87208557128906" class="er attributeBoxEven"></rect><text style="dominant-baseline: middle; font-size: 10.2px;" transform="translate(141.87208557128906,57)" y="0" x="0" id="text-entity-AGEGRP-dba0b5a7-6b36-5275-97c0-7e0b1abfe2fe-attr-2-comment" class="er entityLabel">年齢階層名</text></g><g transform="translate(150.03042221069336,188 )" id="entity-SLEEPTIMEDTL-9d935625-5aa7-5045-b053-4c9bcd8d374a"><rect height="200" width="242.2183380126953" y="0" x="0" class="er entityBox"></rect><text style="dominant-baseline: middle; text-anchor: middle; font-size: 12px;" transform="translate(121.10916900634766,12)" y="0" x="0" id="text-entity-SLEEPTIMEDTL-9d935625-5aa7-5045-b053-4c9bcd8d374a" class="er entityLabel">SLEEP_TIME_DTL(睡眠時間詳細)</text><rect height="22" width="83.42941284179688" y="24" x="0" class="er attributeBoxOdd"></rect><text style="dominant-baseline: middle; font-size: 10.2px;" transform="translate(5,35)" y="0" x="0" id="text-entity-SLEEPTIMEDTL-9d935625-5aa7-5045-b053-4c9bcd8d374a-attr-1-type" class="er entityLabel">PF_CODE</text><rect height="22" width="53.69499206542969" y="24" x="83.42941284179688" class="er attributeBoxOdd"></rect><text style="dominant-baseline: middle; font-size: 10.2px;" transform="translate(88.42941284179688,35)" y="0" x="0" id="text-entity-SLEEPTIMEDTL-9d935625-5aa7-5045-b053-4c9bcd8d374a-attr-1-name" class="er entityLabel">VARCHAR</text><rect height="22" width="22.68768310546875" y="24" x="137.12440490722656" class="er attributeBoxOdd"></rect><text style="dominant-baseline: middle; font-size: 10.2px;" transform="translate(142.12440490722656,35)" y="0" x="0" id="text-entity-SLEEPTIMEDTL-9d935625-5aa7-5045-b053-4c9bcd8d374a-attr-1-key" class="er entityLabel">PK</text><rect height="22" width="82.40625" y="24" x="159.8120880126953" class="er attributeBoxOdd"></rect><text style="dominant-baseline: middle; font-size: 10.2px;" transform="translate(164.8120880126953,35)" y="0" x="0" id="text-entity-SLEEPTIMEDTL-9d935625-5aa7-5045-b053-4c9bcd8d374a-attr-1-comment" class="er entityLabel">都道府県コード</text><rect height="22" width="83.42941284179688" y="46" x="0" class="er attributeBoxEven"></rect><text style="dominant-baseline: middle; font-size: 10.2px;" transform="translate(5,57)" y="0" x="0" id="text-entity-SLEEPTIMEDTL-9d935625-5aa7-5045-b053-4c9bcd8d374a-attr-2-type" class="er entityLabel">AGE_CODE</text><rect height="22" width="53.69499206542969" y="46" x="83.42941284179688" class="er attributeBoxEven"></rect><text style="dominant-baseline: middle; font-size: 10.2px;" transform="translate(88.42941284179688,57)" y="0" x="0" id="text-entity-SLEEPTIMEDTL-9d935625-5aa7-5045-b053-4c9bcd8d374a-attr-2-name" class="er entityLabel">VARCHAR</text><rect height="22" width="22.68768310546875" y="46" x="137.12440490722656" class="er attributeBoxEven"></rect><text style="dominant-baseline: middle; font-size: 10.2px;" transform="translate(142.12440490722656,57)" y="0" x="0" id="text-entity-SLEEPTIMEDTL-9d935625-5aa7-5045-b053-4c9bcd8d374a-attr-2-key" class="er entityLabel">PK</text><rect height="22" width="82.40625" y="46" x="159.8120880126953" class="er attributeBoxEven"></rect><text style="dominant-baseline: middle; font-size: 10.2px;" transform="translate(164.8120880126953,57)" y="0" x="0" id="text-entity-SLEEPTIMEDTL-9d935625-5aa7-5045-b053-4c9bcd8d374a-attr-2-comment" class="er entityLabel">年齢コード</text><rect height="22" width="83.42941284179688" y="68" x="0" class="er attributeBoxOdd"></rect><text style="dominant-baseline: middle; font-size: 10.2px;" transform="translate(5,79)" y="0" x="0" id="text-entity-SLEEPTIMEDTL-9d935625-5aa7-5045-b053-4c9bcd8d374a-attr-3-type" class="er entityLabel">SP_TIME_5</text><rect height="22" width="53.69499206542969" y="68" x="83.42941284179688" class="er attributeBoxOdd"></rect><text style="dominant-baseline: middle; font-size: 10.2px;" transform="translate(88.42941284179688,79)" y="0" x="0" id="text-entity-SLEEPTIMEDTL-9d935625-5aa7-5045-b053-4c9bcd8d374a-attr-3-name" class="er entityLabel">INTEGER</text><rect height="22" width="22.68768310546875" y="68" x="137.12440490722656" class="er attributeBoxOdd"></rect><text style="dominant-baseline: middle; font-size: 10.2px;" transform="translate(142.12440490722656,79)" y="0" x="0" id="text-entity-SLEEPTIMEDTL-9d935625-5aa7-5045-b053-4c9bcd8d374a-attr-3-key" class="er entityLabel"></text><rect height="22" width="82.40625" y="68" x="159.8120880126953" class="er attributeBoxOdd"></rect><text style="dominant-baseline: middle; font-size: 10.2px;" transform="translate(164.8120880126953,79)" y="0" x="0" id="text-entity-SLEEPTIMEDTL-9d935625-5aa7-5045-b053-4c9bcd8d374a-attr-3-comment" class="er entityLabel">睡眠時間5未満</text><rect height="22" width="83.42941284179688" y="90" x="0" class="er attributeBoxEven"></rect><text style="dominant-baseline: middle; font-size: 10.2px;" transform="translate(5,101)" y="0" x="0" id="text-entity-SLEEPTIMEDTL-9d935625-5aa7-5045-b053-4c9bcd8d374a-attr-4-type" class="er entityLabel">SP_TIME_6</text><rect height="22" width="53.69499206542969" y="90" x="83.42941284179688" class="er attributeBoxEven"></rect><text style="dominant-baseline: middle; font-size: 10.2px;" transform="translate(88.42941284179688,101)" y="0" x="0" id="text-entity-SLEEPTIMEDTL-9d935625-5aa7-5045-b053-4c9bcd8d374a-attr-4-name" class="er entityLabel">INTEGER</text><rect height="22" width="22.68768310546875" y="90" x="137.12440490722656" class="er attributeBoxEven"></rect><text style="dominant-baseline: middle; font-size: 10.2px;" transform="translate(142.12440490722656,101)" y="0" x="0" id="text-entity-SLEEPTIMEDTL-9d935625-5aa7-5045-b053-4c9bcd8d374a-attr-4-key" class="er entityLabel"></text><rect height="22" width="82.40625" y="90" x="159.8120880126953" class="er attributeBoxEven"></rect><text style="dominant-baseline: middle; font-size: 10.2px;" transform="translate(164.8120880126953,101)" y="0" x="0" id="text-entity-SLEEPTIMEDTL-9d935625-5aa7-5045-b053-4c9bcd8d374a-attr-4-comment" class="er entityLabel">睡眠時間6未満</text><rect height="22" width="83.42941284179688" y="112" x="0" class="er attributeBoxOdd"></rect><text style="dominant-baseline: middle; font-size: 10.2px;" transform="translate(5,123)" y="0" x="0" id="text-entity-SLEEPTIMEDTL-9d935625-5aa7-5045-b053-4c9bcd8d374a-attr-5-type" class="er entityLabel">SP_TIME_7</text><rect height="22" width="53.69499206542969" y="112" x="83.42941284179688" class="er attributeBoxOdd"></rect><text style="dominant-baseline: middle; font-size: 10.2px;" transform="translate(88.42941284179688,123)" y="0" x="0" id="text-entity-SLEEPTIMEDTL-9d935625-5aa7-5045-b053-4c9bcd8d374a-attr-5-name" class="er entityLabel">INTEGER</text><rect height="22" width="22.68768310546875" y="112" x="137.12440490722656" class="er attributeBoxOdd"></rect><text style="dominant-baseline: middle; font-size: 10.2px;" transform="translate(142.12440490722656,123)" y="0" x="0" id="text-entity-SLEEPTIMEDTL-9d935625-5aa7-5045-b053-4c9bcd8d374a-attr-5-key" class="er entityLabel"></text><rect height="22" width="82.40625" y="112" x="159.8120880126953" class="er attributeBoxOdd"></rect><text style="dominant-baseline: middle; font-size: 10.2px;" transform="translate(164.8120880126953,123)" y="0" x="0" id="text-entity-SLEEPTIMEDTL-9d935625-5aa7-5045-b053-4c9bcd8d374a-attr-5-comment" class="er entityLabel">睡眠時間7未満</text><rect height="22" width="83.42941284179688" y="134" x="0" class="er attributeBoxEven"></rect><text style="dominant-baseline: middle; font-size: 10.2px;" transform="translate(5,145)" y="0" x="0" id="text-entity-SLEEPTIMEDTL-9d935625-5aa7-5045-b053-4c9bcd8d374a-attr-6-type" class="er entityLabel">SP_TIME_8</text><rect height="22" width="53.69499206542969" y="134" x="83.42941284179688" class="er attributeBoxEven"></rect><text style="dominant-baseline: middle; font-size: 10.2px;" transform="translate(88.42941284179688,145)" y="0" x="0" id="text-entity-SLEEPTIMEDTL-9d935625-5aa7-5045-b053-4c9bcd8d374a-attr-6-name" class="er entityLabel">INTEGER</text><rect height="22" width="22.68768310546875" y="134" x="137.12440490722656" class="er attributeBoxEven"></rect><text style="dominant-baseline: middle; font-size: 10.2px;" transform="translate(142.12440490722656,145)" y="0" x="0" id="text-entity-SLEEPTIMEDTL-9d935625-5aa7-5045-b053-4c9bcd8d374a-attr-6-key" class="er entityLabel"></text><rect height="22" width="82.40625" y="134" x="159.8120880126953" class="er attributeBoxEven"></rect><text style="dominant-baseline: middle; font-size: 10.2px;" transform="translate(164.8120880126953,145)" y="0" x="0" id="text-entity-SLEEPTIMEDTL-9d935625-5aa7-5045-b053-4c9bcd8d374a-attr-6-comment" class="er entityLabel">睡眠時間8未満</text><rect height="22" width="83.42941284179688" y="156" x="0" class="er attributeBoxOdd"></rect><text style="dominant-baseline: middle; font-size: 10.2px;" transform="translate(5,167)" y="0" x="0" id="text-entity-SLEEPTIMEDTL-9d935625-5aa7-5045-b053-4c9bcd8d374a-attr-7-type" class="er entityLabel">SP_TIME_9</text><rect height="22" width="53.69499206542969" y="156" x="83.42941284179688" class="er attributeBoxOdd"></rect><text style="dominant-baseline: middle; font-size: 10.2px;" transform="translate(88.42941284179688,167)" y="0" x="0" id="text-entity-SLEEPTIMEDTL-9d935625-5aa7-5045-b053-4c9bcd8d374a-attr-7-name" class="er entityLabel">INTEGER</text><rect height="22" width="22.68768310546875" y="156" x="137.12440490722656" class="er attributeBoxOdd"></rect><text style="dominant-baseline: middle; font-size: 10.2px;" transform="translate(142.12440490722656,167)" y="0" x="0" id="text-entity-SLEEPTIMEDTL-9d935625-5aa7-5045-b053-4c9bcd8d374a-attr-7-key" class="er entityLabel"></text><rect height="22" width="82.40625" y="156" x="159.8120880126953" class="er attributeBoxOdd"></rect><text style="dominant-baseline: middle; font-size: 10.2px;" transform="translate(164.8120880126953,167)" y="0" x="0" id="text-entity-SLEEPTIMEDTL-9d935625-5aa7-5045-b053-4c9bcd8d374a-attr-7-comment" class="er entityLabel">睡眠時間9未満</text><rect height="22" width="83.42941284179688" y="178" x="0" class="er attributeBoxEven"></rect><text style="dominant-baseline: middle; font-size: 10.2px;" transform="translate(5,189)" y="0" x="0" id="text-entity-SLEEPTIMEDTL-9d935625-5aa7-5045-b053-4c9bcd8d374a-attr-8-type" class="er entityLabel">SP_TIME_9OVER</text><rect height="22" width="53.69499206542969" y="178" x="83.42941284179688" class="er attributeBoxEven"></rect><text style="dominant-baseline: middle; font-size: 10.2px;" transform="translate(88.42941284179688,189)" y="0" x="0" id="text-entity-SLEEPTIMEDTL-9d935625-5aa7-5045-b053-4c9bcd8d374a-attr-8-name" class="er entityLabel">INTEGER</text><rect height="22" width="22.68768310546875" y="178" x="137.12440490722656" class="er attributeBoxEven"></rect><text style="dominant-baseline: middle; font-size: 10.2px;" transform="translate(142.12440490722656,189)" y="0" x="0" id="text-entity-SLEEPTIMEDTL-9d935625-5aa7-5045-b053-4c9bcd8d374a-attr-8-key" class="er entityLabel"></text><rect height="22" width="82.40625" y="178" x="159.8120880126953" class="er attributeBoxEven"></rect><text style="dominant-baseline: middle; font-size: 10.2px;" transform="translate(164.8120880126953,189)" y="0" x="0" id="text-entity-SLEEPTIMEDTL-9d935625-5aa7-5045-b053-4c9bcd8d374a-attr-8-comment" class="er entityLabel">睡眠時間9以上</text></g><g transform="translate(317.87208557128906,20 )" id="entity-PREFECTURE-3bc397c2-8ded-593a-98be-0aac65dd9924"><rect height="68" width="210.94210815429688" y="0" x="0" class="er entityBox"></rect><text style="dominant-baseline: middle; text-anchor: middle; font-size: 12px;" transform="translate(105.47105407714844,12)" y="0" x="0" id="text-entity-PREFECTURE-3bc397c2-8ded-593a-98be-0aac65dd9924" class="er entityLabel">PREFECTURE(都道府県)</text><rect height="22" width="52.15318298339844" y="24" x="0" class="er attributeBoxOdd"></rect><text style="dominant-baseline: middle; font-size: 10.2px;" transform="translate(5,35)" y="0" x="0" id="text-entity-PREFECTURE-3bc397c2-8ded-593a-98be-0aac65dd9924-attr-1-type" class="er entityLabel">PF_CODE</text><rect height="22" width="53.69499206542969" y="24" x="52.15318298339844" class="er attributeBoxOdd"></rect><text style="dominant-baseline: middle; font-size: 10.2px;" transform="translate(57.15318298339844,35)" y="0" x="0" id="text-entity-PREFECTURE-3bc397c2-8ded-593a-98be-0aac65dd9924-attr-1-name" class="er entityLabel">VARCHAR</text><rect height="22" width="22.68768310546875" y="24" x="105.84817504882812" class="er attributeBoxOdd"></rect><text style="dominant-baseline: middle; font-size: 10.2px;" transform="translate(110.84817504882812,35)" y="0" x="0" id="text-entity-PREFECTURE-3bc397c2-8ded-593a-98be-0aac65dd9924-attr-1-key" class="er entityLabel">PK</text><rect height="22" width="82.40625" y="24" x="128.53585815429688" class="er attributeBoxOdd"></rect><text style="dominant-baseline: middle; font-size: 10.2px;" transform="translate(133.53585815429688,35)" y="0" x="0" id="text-entity-PREFECTURE-3bc397c2-8ded-593a-98be-0aac65dd9924-attr-1-comment" class="er entityLabel">都道府県コード</text><rect height="22" width="52.15318298339844" y="46" x="0" class="er attributeBoxEven"></rect><text style="dominant-baseline: middle; font-size: 10.2px;" transform="translate(5,57)" y="0" x="0" id="text-entity-PREFECTURE-3bc397c2-8ded-593a-98be-0aac65dd9924-attr-2-type" class="er entityLabel">PF_NAME</text><rect height="22" width="53.69499206542969" y="46" x="52.15318298339844" class="er attributeBoxEven"></rect><text style="dominant-baseline: middle; font-size: 10.2px;" transform="translate(57.15318298339844,57)" y="0" x="0" id="text-entity-PREFECTURE-3bc397c2-8ded-593a-98be-0aac65dd9924-attr-2-name" class="er entityLabel">VARCHAR</text><rect height="22" width="22.68768310546875" y="46" x="105.84817504882812" class="er attributeBoxEven"></rect><text style="dominant-baseline: middle; font-size: 10.2px;" transform="translate(110.84817504882812,57)" y="0" x="0" id="text-entity-PREFECTURE-3bc397c2-8ded-593a-98be-0aac65dd9924-attr-2-key" class="er entityLabel"></text><rect height="22" width="82.40625" y="46" x="128.53585815429688" class="er attributeBoxEven"></rect><text style="dominant-baseline: middle; font-size: 10.2px;" transform="translate(133.53585815429688,57)" y="0" x="0" id="text-entity-PREFECTURE-3bc397c2-8ded-593a-98be-0aac65dd9924-attr-2-comment" class="er entityLabel">都道府県名</text></g><rect height="14" width="18.69921875" y="137.29678344726562" x="121.61614990234375" class="er relationshipLabelBox"></rect><text style="text-anchor: middle; dominant-baseline: middle; font-size: 12px;" y="144.29678344726562" x="130.96575927734375" id="rel1" class="er relationshipLabel">1:N</text><rect height="14" width="18.69921875" y="137.29660034179688" x="401.9640197753906" class="er relationshipLabelBox"></rect><text style="text-anchor: middle; dominant-baseline: middle; font-size: 12px;" y="144.29660034179688" x="411.3136291503906" id="rel2" class="er relationshipLabel">1:N</text></svg>