<svg aria-roledescription="er" role="graphics-document document" viewBox="0 0 563.1141357421875 298" style="max-width: 100%;" xmlns="http://www.w3.org/2000/svg" width="100%" id="graph-div" height="100%" xmlns:xlink="http://www.w3.org/1999/xlink"><style>@import url("https://cdnjs.cloudflare.com/ajax/libs/font-awesome/6.5.1/css/all.min.css");'</style><style>#graph-div{font-family:"trebuchet ms",verdana,arial,sans-serif;font-size:16px;fill:#333;}#graph-div .error-icon{fill:#552222;}#graph-div .error-text{fill:#552222;stroke:#552222;}#graph-div .edge-thickness-normal{stroke-width:2px;}#graph-div .edge-thickness-thick{stroke-width:3.5px;}#graph-div .edge-pattern-solid{stroke-dasharray:0;}#graph-div .edge-pattern-dashed{stroke-dasharray:3;}#graph-div .edge-pattern-dotted{stroke-dasharray:2;}#graph-div .marker{fill:#333333;stroke:#333333;}#graph-div .marker.cross{stroke:#333333;}#graph-div svg{font-family:"trebuchet ms",verdana,arial,sans-serif;font-size:16px;}#graph-div .entityBox{fill:#ECECFF;stroke:#9370DB;}#graph-div .attributeBoxOdd{fill:#ffffff;stroke:#9370DB;}#graph-div .attributeBoxEven{fill:#f2f2f2;stroke:#9370DB;}#graph-div .relationshipLabelBox{fill:hsl(80, 100%, 96.2745098039%);opacity:0.7;background-color:hsl(80, 100%, 96.2745098039%);}#graph-div .relationshipLabelBox rect{opacity:0.5;}#graph-div .relationshipLine{stroke:#333333;}#graph-div .entityTitleText{text-anchor:middle;font-size:18px;fill:#333;}#graph-div #MD_PARENT_START{fill:#f5f5f5!important;stroke:#333333!important;stroke-width:1;}#graph-div #MD_PARENT_END{fill:#f5f5f5!important;stroke:#333333!important;stroke-width:1;}#graph-div :root{--mermaid-font-family:"trebuchet ms",verdana,arial,sans-serif;}</style><g></g><defs><marker orient="auto" markerHeight="240" markerWidth="190" refY="7" refX="0" id="MD_PARENT_START"><path d="M 18,7 L9,13 L1,7 L9,1 Z"></path></marker></defs><defs><marker orient="auto" markerHeight="28" markerWidth="20" refY="7" refX="19" id="MD_PARENT_END"><path d="M 18,7 L9,13 L1,7 L9,1 Z"></path></marker></defs><defs><marker orient="auto" markerHeight="18" markerWidth="18" refY="9" refX="0" id="ONLY_ONE_START"><path d="M9,0 L9,18 M15,0 L15,18" fill="none" stroke="gray"></path></marker></defs><defs><marker orient="auto" markerHeight="18" markerWidth="18" refY="9" refX="18" id="ONLY_ONE_END"><path d="M3,0 L3,18 M9,0 L9,18" fill="none" stroke="gray"></path></marker></defs><defs><marker orient="auto" markerHeight="18" markerWidth="30" refY="9" refX="0" id="ZERO_OR_ONE_START"><circle r="6" cy="9" cx="21" fill="white" stroke="gray"></circle><path d="M9,0 L9,18" fill="none" stroke="gray"></path></marker></defs><defs><marker orient="auto" markerHeight="18" markerWidth="30" refY="9" refX="30" id="ZERO_OR_ONE_END"><circle r="6" cy="9" cx="9" fill="white" stroke="gray"></circle><path d="M21,0 L21,18" fill="none" stroke="gray"></path></marker></defs><defs><marker orient="auto" markerHeight="36" markerWidth="45" refY="18" refX="18" id="ONE_OR_MORE_START"><path d="M0,18 Q 18,0 36,18 Q 18,36 0,18 M42,9 L42,27" fill="none" stroke="gray"></path></marker></defs><defs><marker orient="auto" markerHeight="36" markerWidth="45" refY="18" refX="27" id="ONE_OR_MORE_END"><path d="M3,9 L3,27 M9,18 Q27,0 45,18 Q27,36 9,18" fill="none" stroke="gray"></path></marker></defs><defs><marker orient="auto" markerHeight="36" markerWidth="57" refY="18" refX="18" id="ZERO_OR_MORE_START"><circle r="6" cy="18" cx="48" fill="white" stroke="gray"></circle><path d="M0,18 Q18,0 36,18 Q18,36 0,18" fill="none" stroke="gray"></path></marker></defs><defs><marker orient="auto" markerHeight="36" markerWidth="57" refY="18" refX="39" id="ZERO_OR_MORE_END"><circle r="6" cy="18" cx="9" fill="white" stroke="gray"></circle><path d="M21,18 Q39,0 57,18 Q39,36 21,18" fill="none" stroke="gray"></path></marker></defs><path style="stroke: gray; fill: none;" marker-start="url(#ONLY_ONE_START)" marker-end="url(#ONE_OR_MORE_END)" d="M125.471,88L125.471,96.333C125.471,104.667,125.471,121.333,139.136,138C152.801,154.667,180.13,171.333,193.795,179.667L207.46,188" class="er relationshipLine"></path><path style="stroke: gray; fill: none;" marker-start="url(#ONLY_ONE_START)" marker-end="url(#ONE_OR_MORE_END)" d="M437.028,88L437.028,96.333C437.028,104.667,437.028,121.333,423.363,138C409.699,154.667,382.369,171.333,368.704,179.667L355.039,188" class="er relationshipLine"></path><g transform="translate(20,20 )" id="entity-PREFECTURE-3bc397c2-8ded-593a-98be-0aac65dd9924"><rect height="68" width="210.94210815429688" y="0" x="0" class="er entityBox"></rect><text style="dominant-baseline: middle; text-anchor: middle; font-size: 12px;" transform="translate(105.47105407714844,12)" y="0" x="0" id="text-entity-PREFECTURE-3bc397c2-8ded-593a-98be-0aac65dd9924" class="er entityLabel">PREFECTURE(都道府県)</text><rect height="22" width="52.15318298339844" y="24" x="0" class="er attributeBoxOdd"></rect><text style="dominant-baseline: middle; font-size: 10.2px;" transform="translate(5,35)" y="0" x="0" id="text-entity-PREFECTURE-3bc397c2-8ded-593a-98be-0aac65dd9924-attr-1-type" class="er entityLabel">PF_CODE</text><rect height="22" width="53.69499206542969" y="24" x="52.15318298339844" class="er attributeBoxOdd"></rect><text style="dominant-baseline: middle; font-size: 10.2px;" transform="translate(57.15318298339844,35)" y="0" x="0" id="text-entity-PREFECTURE-3bc397c2-8ded-593a-98be-0aac65dd9924-attr-1-name" class="er entityLabel">VARCHAR</text><rect height="22" width="22.68768310546875" y="24" x="105.84817504882812" class="er attributeBoxOdd"></rect><text style="dominant-baseline: middle; font-size: 10.2px;" transform="translate(110.84817504882812,35)" y="0" x="0" id="text-entity-PREFECTURE-3bc397c2-8ded-593a-98be-0aac65dd9924-attr-1-key" class="er entityLabel">PK</text><rect height="22" width="82.40625" y="24" x="128.53585815429688" class="er attributeBoxOdd"></rect><text style="dominant-baseline: middle; font-size: 10.2px;" transform="translate(133.53585815429688,35)" y="0" x="0" id="text-entity-PREFECTURE-3bc397c2-8ded-593a-98be-0aac65dd9924-attr-1-comment" class="er entityLabel">都道府県コード</text><rect height="22" width="52.15318298339844" y="46" x="0" class="er attributeBoxEven"></rect><text style="dominant-baseline: middle; font-size: 10.2px;" transform="translate(5,57)" y="0" x="0" id="text-entity-PREFECTURE-3bc397c2-8ded-593a-98be-0aac65dd9924-attr-2-type" class="er entityLabel">PF_NAME</text><rect height="22" width="53.69499206542969" y="46" x="52.15318298339844" class="er attributeBoxEven"></rect><text style="dominant-baseline: middle; font-size: 10.2px;" transform="translate(57.15318298339844,57)" y="0" x="0" id="text-entity-PREFECTURE-3bc397c2-8ded-593a-98be-0aac65dd9924-attr-2-name" class="er entityLabel">VARCHAR</text><rect height="22" width="22.68768310546875" y="46" x="105.84817504882812" class="er attributeBoxEven"></rect><text style="dominant-baseline: middle; font-size: 10.2px;" transform="translate(110.84817504882812,57)" y="0" x="0" id="text-entity-PREFECTURE-3bc397c2-8ded-593a-98be-0aac65dd9924-attr-2-key" class="er entityLabel"></text><rect height="22" width="82.40625" y="46" x="128.53585815429688" class="er attributeBoxEven"></rect><text style="dominant-baseline: middle; font-size: 10.2px;" transform="translate(133.53585815429688,57)" y="0" x="0" id="text-entity-PREFECTURE-3bc397c2-8ded-593a-98be-0aac65dd9924-attr-2-comment" class="er entityLabel">都道府県名</text></g><g transform="translate(164.72689056396484,188 )" id="entity-FOREIGNER-39ce3820-592e-5f74-a5e7-b0d5e58d90e1"><rect height="90" width="233.04541015625" y="0" x="0" class="er entityBox"></rect><text style="dominant-baseline: middle; text-anchor: middle; font-size: 12px;" transform="translate(116.522705078125,12)" y="0" x="0" id="text-entity-FOREIGNER-39ce3820-592e-5f74-a5e7-b0d5e58d90e1" class="er entityLabel">FOREIGNER(外国人集計)</text><rect height="22" width="74.25648498535156" y="24" x="0" class="er attributeBoxOdd"></rect><text style="dominant-baseline: middle; font-size: 10.2px;" transform="translate(5,35)" y="0" x="0" id="text-entity-FOREIGNER-39ce3820-592e-5f74-a5e7-b0d5e58d90e1-attr-1-type" class="er entityLabel">PF_CODE</text><rect height="22" width="53.69499206542969" y="24" x="74.25648498535156" class="er attributeBoxOdd"></rect><text style="dominant-baseline: middle; font-size: 10.2px;" transform="translate(79.25648498535156,35)" y="0" x="0" id="text-entity-FOREIGNER-39ce3820-592e-5f74-a5e7-b0d5e58d90e1-attr-1-name" class="er entityLabel">VARCHAR</text><rect height="22" width="22.68768310546875" y="24" x="127.95147705078125" class="er attributeBoxOdd"></rect><text style="dominant-baseline: middle; font-size: 10.2px;" transform="translate(132.95147705078125,35)" y="0" x="0" id="text-entity-FOREIGNER-39ce3820-592e-5f74-a5e7-b0d5e58d90e1-attr-1-key" class="er entityLabel">PK</text><rect height="22" width="82.40625" y="24" x="150.63916015625" class="er attributeBoxOdd"></rect><text style="dominant-baseline: middle; font-size: 10.2px;" transform="translate(155.63916015625,35)" y="0" x="0" id="text-entity-FOREIGNER-39ce3820-592e-5f74-a5e7-b0d5e58d90e1-attr-1-comment" class="er entityLabel">都道府県コード</text><rect height="22" width="74.25648498535156" y="46" x="0" class="er attributeBoxEven"></rect><text style="dominant-baseline: middle; font-size: 10.2px;" transform="translate(5,57)" y="0" x="0" id="text-entity-FOREIGNER-39ce3820-592e-5f74-a5e7-b0d5e58d90e1-attr-2-type" class="er entityLabel">NATION_CODE</text><rect height="22" width="53.69499206542969" y="46" x="74.25648498535156" class="er attributeBoxEven"></rect><text style="dominant-baseline: middle; font-size: 10.2px;" transform="translate(79.25648498535156,57)" y="0" x="0" id="text-entity-FOREIGNER-39ce3820-592e-5f74-a5e7-b0d5e58d90e1-attr-2-name" class="er entityLabel">VARCHAR</text><rect height="22" width="22.68768310546875" y="46" x="127.95147705078125" class="er attributeBoxEven"></rect><text style="dominant-baseline: middle; font-size: 10.2px;" transform="translate(132.95147705078125,57)" y="0" x="0" id="text-entity-FOREIGNER-39ce3820-592e-5f74-a5e7-b0d5e58d90e1-attr-2-key" class="er entityLabel">PK</text><rect height="22" width="82.40625" y="46" x="150.63916015625" class="er attributeBoxEven"></rect><text style="dominant-baseline: middle; font-size: 10.2px;" transform="translate(155.63916015625,57)" y="0" x="0" id="text-entity-FOREIGNER-39ce3820-592e-5f74-a5e7-b0d5e58d90e1-attr-2-comment" class="er entityLabel">国籍コード</text><rect height="22" width="74.25648498535156" y="68" x="0" class="er attributeBoxOdd"></rect><text style="dominant-baseline: middle; font-size: 10.2px;" transform="translate(5,79)" y="0" x="0" id="text-entity-FOREIGNER-39ce3820-592e-5f74-a5e7-b0d5e58d90e1-attr-3-type" class="er entityLabel">AMT</text><rect height="22" width="53.69499206542969" y="68" x="74.25648498535156" class="er attributeBoxOdd"></rect><text style="dominant-baseline: middle; font-size: 10.2px;" transform="translate(79.25648498535156,79)" y="0" x="0" id="text-entity-FOREIGNER-39ce3820-592e-5f74-a5e7-b0d5e58d90e1-attr-3-name" class="er entityLabel">INTEGER</text><rect height="22" width="22.68768310546875" y="68" x="127.95147705078125" class="er attributeBoxOdd"></rect><text style="dominant-baseline: middle; font-size: 10.2px;" transform="translate(132.95147705078125,79)" y="0" x="0" id="text-entity-FOREIGNER-39ce3820-592e-5f74-a5e7-b0d5e58d90e1-attr-3-key" class="er entityLabel"></text><rect height="22" width="82.40625" y="68" x="150.63916015625" class="er attributeBoxOdd"></rect><text style="dominant-baseline: middle; font-size: 10.2px;" transform="translate(155.63916015625,79)" y="0" x="0" id="text-entity-FOREIGNER-39ce3820-592e-5f74-a5e7-b0d5e58d90e1-attr-3-comment" class="er entityLabel">人数</text></g><g transform="translate(330.9421081542969,20 )" id="entity-NATIONALITY-b0685583-1abb-58aa-b442-6f7a1edadee3"><rect height="68" width="212.17205810546875" y="0" x="0" class="er entityBox"></rect><text style="dominant-baseline: middle; text-anchor: middle; font-size: 12px;" transform="translate(106.08602905273438,12)" y="0" x="0" id="text-entity-NATIONALITY-b0685583-1abb-58aa-b442-6f7a1edadee3" class="er entityLabel">NATIONALITY(国籍)</text><rect height="22" width="74.78938293457031" y="24" x="0" class="er attributeBoxOdd"></rect><text style="dominant-baseline: middle; font-size: 10.2px;" transform="translate(5,35)" y="0" x="0" id="text-entity-NATIONALITY-b0685583-1abb-58aa-b442-6f7a1edadee3-attr-1-type" class="er entityLabel">NATION_CODE</text><rect height="22" width="53.69499206542969" y="24" x="74.78938293457031" class="er attributeBoxOdd"></rect><text style="dominant-baseline: middle; font-size: 10.2px;" transform="translate(79.78938293457031,35)" y="0" x="0" id="text-entity-NATIONALITY-b0685583-1abb-58aa-b442-6f7a1edadee3-attr-1-name" class="er entityLabel">VARCHAR</text><rect height="22" width="22.68768310546875" y="24" x="128.484375" class="er attributeBoxOdd"></rect><text style="dominant-baseline: middle; font-size: 10.2px;" transform="translate(133.484375,35)" y="0" x="0" id="text-entity-NATIONALITY-b0685583-1abb-58aa-b442-6f7a1edadee3-attr-1-key" class="er entityLabel">PK</text><rect height="22" width="61" y="24" x="151.17205810546875" class="er attributeBoxOdd"></rect><text style="dominant-baseline: middle; font-size: 10.2px;" transform="translate(156.17205810546875,35)" y="0" x="0" id="text-entity-NATIONALITY-b0685583-1abb-58aa-b442-6f7a1edadee3-attr-1-comment" class="er entityLabel">国籍コード</text><rect height="22" width="74.78938293457031" y="46" x="0" class="er attributeBoxEven"></rect><text style="dominant-baseline: middle; font-size: 10.2px;" transform="translate(5,57)" y="0" x="0" id="text-entity-NATIONALITY-b0685583-1abb-58aa-b442-6f7a1edadee3-attr-2-type" class="er entityLabel">NATION_NAME</text><rect height="22" width="53.69499206542969" y="46" x="74.78938293457031" class="er attributeBoxEven"></rect><text style="dominant-baseline: middle; font-size: 10.2px;" transform="translate(79.78938293457031,57)" y="0" x="0" id="text-entity-NATIONALITY-b0685583-1abb-58aa-b442-6f7a1edadee3-attr-2-name" class="er entityLabel">VARCHAR</text><rect height="22" width="22.68768310546875" y="46" x="128.484375" class="er attributeBoxEven"></rect><text style="dominant-baseline: middle; font-size: 10.2px;" transform="translate(133.484375,57)" y="0" x="0" id="text-entity-NATIONALITY-b0685583-1abb-58aa-b442-6f7a1edadee3-attr-2-key" class="er entityLabel"></text><rect height="22" width="61" y="46" x="151.17205810546875" class="er attributeBoxEven"></rect><text style="dominant-baseline: middle; font-size: 10.2px;" transform="translate(156.17205810546875,57)" y="0" x="0" id="text-entity-NATIONALITY-b0685583-1abb-58aa-b442-6f7a1edadee3-attr-2-comment" class="er entityLabel">国籍名</text></g><rect height="14" width="18.69921875" y="142.31658935546875" x="140.95797729492188" class="er relationshipLabelBox"></rect><text style="text-anchor: middle; dominant-baseline: middle; font-size: 12px;" y="149.31658935546875" x="150.30758666992188" id="rel5" class="er relationshipLabel">1:N</text><rect height="14" width="18.69921875" y="142.31678771972656" x="402.8420104980469" class="er relationshipLabelBox"></rect><text style="text-anchor: middle; dominant-baseline: middle; font-size: 12px;" y="149.31678771972656" x="412.1916198730469" id="rel6" class="er relationshipLabel">1:N</text></svg>